# xmcd
#
# Track frame offsets: 
#        150
#        12487
#        28297
#        44447
#        64202
#        79662
#        97497
#        107675
#        125950
#        143127
#        153570
#        164705
#        178112
#        194977
#
# Disc length: 2787 seconds
#
# Revision: 2
# Processed by: cddbd v1.5.2PL0 Copyright (c) Steve Scherf et al.
# Submitted via: ExactAudioCopy v0.99pb5
#
DISCID=df0ae10e
DTITLE=Commander Cody - Relix's Best of Commander Cody
DYEAR=1900
DGENRE=
TTITLE0=Blue Suede Shoes
TTITLE1=Down and Out
TTITLE2=Seeds and Stems Again Blues
TTITLE3=It Should Have Been Me
TTITLE4=Where the Sun Sets on the Sage
TTITLE5=We Used to Ride
TTITLE6=What Made Milwaukee Famous
TTITLE7=Gypsy Fiddle
TTITLE8=Beat Me Daddy (Eight to the Bar)
TTITLE9=Two Tripple Cheese, Side Order of Fries
TTITLE10=Joint Chiefs of Staff
TTITLE11=Hot Rod Lincoln
TTITLE12=Riot in Cell Block #9
TTITLE13=Don't Let Go
EXTD=
EXTT0=
EXTT1=
EXTT2=
EXTT3=
EXTT4=
EXTT5=
EXTT6=
EXTT7=
EXTT8=
EXTT9=
EXTT10=
EXTT11=
EXTT12=
EXTT13=
PLAYORDER=
